PathFileType	4	(X/Y/Z)	Kaydara	
DataRate	CameraRate	NumFrames	NumMarkers	Units	OrigDataRate	OrigDataStartFrame	OrigNumFrames	
60.00	60.00	4	74	mm	60.00	677	250	
Frame#	Time	N_lasi			N_rasi			N_rpsi			N_lpsi			N_fneck			N_bneck			N_fhead			N_rhead			N_lhead			N_rshld			N_relbtop			N_relbext			N_relblow			N_rwrext			N_rwrtop			N_rwrlow			N_lshld			N_lelbext			N_lelblow			N_lelbtop			N_lwrext			N_lwrtop			N_lwrlow			N_rtopleg			N_ltopleg			N_rkneefr			N_rkneebk			N_rkneeis			N_lkneefr			N_lknssbk			N_lkneeis			N_rankfr			N_rankis			N_rankbk			N_lankfr			N_lankbk			N_lankis			D_lasi			D_rasi			D_rpsi			D_lpsi			D_fneck			D_bneck			D_fhead			D_rhead			D_lhead			D_rshld			D_relbtop			D_relbext			D_relblow			D_rwrext			D_rwrtop			D_rwrlow			D_lshld			D_lelbext			D_lelblow			D_lelbtop			D_lwrext			D_lwrtop			D_lwrlow			D_rtopleg			D_ltopleg			D_rkneefr			D_rkneebk			D_rkneeis			D_lkneefr			D_lknssbk			D_lkneeis			D_rankfr			D_rankis			D_rankbk			D_lankfr			D_lankbk			D_lankis			
		X1	Y1	Z1	X2	Y2	Z2	X3	Y3	Z3	X4	Y4	Z4	X5	Y5	Z5	X6	Y6	Z6	X7	Y7	Z7	X8	Y8	Z8	X9	Y9	Z9	X10	Y10	Z10	X11	Y11	Z11	X12	Y12	Z12	X13	Y13	Z13	X14	Y14	Z14	X15	Y15	Z15	X16	Y16	Z16	X17	Y17	Z17	X18	Y18	Z18	X19	Y19	Z19	X20	Y20	Z20	X21	Y21	Z21	X22	Y22	Z22	X23	Y23	Z23	X24	Y24	Z24	X25	Y25	Z25	X26	Y26	Z26	X27	Y27	Z27	X28	Y28	Z28	X29	Y29	Z29	X30	Y30	Z30	X31	Y31	Z31	X32	Y32	Z32	X33	Y33	Z33	X34	Y34	Z34	X35	Y35	Z35	X36	Y36	Z36	X37	Y37	Z37	X38	Y38	Z38	X39	Y39	Z39	X40	Y40	Z40	X41	Y41	Z41	X42	Y42	Z42	X43	Y43	Z43	X44	Y44	Z44	X45	Y45	Z45	X46	Y46	Z46	X47	Y47	Z47	X48	Y48	Z48	X49	Y49	Z49	X50	Y50	Z50	X51	Y51	Z51	X52	Y52	Z52	X53	Y53	Z53	X54	Y54	Z54	X55	Y55	Z55	X56	Y56	Z56	X57	Y57	Z57	X58	Y58	Z58	X59	Y59	Z59	X60	Y60	Z60	X61	Y61	Z61	X62	Y62	Z62	X63	Y63	Z63	X64	Y64	Z64	X65	Y65	Z65	X66	Y66	Z66	X67	Y67	Z67	X68	Y68	Z68	X69	Y69	Z69	X70	Y70	Z70	X71	Y71	Z71	X72	Y72	Z72	X73	Y73	Z73	X74	Y74	Z74	

126	11.267	-1075.58594	1084.46457	580.03578	-1328.94318	1108.26767	552.49126	-1342.92374	1152.77908	269.38126	-993.53889	1150.68947	304.50024	-1078.76999	1515.65033	365.70461	-1181.56754	1616.53381	395.90752	-1113.78189	1667.99347	636.01501	-1226.49742	1718.27240	474.66267	-1070.39368	1698.49945	474.11125	-1426.84540	1469.30237	395.52292	-1508.17993	1163.94371	282.72394	-1535.13031	1132.37938	412.09808	-1503.04962	1159.91623	371.03416	-1537.47513	855.85609	335.78754	-1525.38818	854.85756	382.11853	-1477.54623	857.39365	384.18602	-925.68962	1463.85117	381.93111	-969.35532	1124.87038	456.49300	-890.49400	1151.68190	511.89720	-881.54129	1116.80809	433.83209	-973.44170	910.67490	657.01523	-981.50719	938.40599	695.99442	-1029.17587	950.79674	677.49519	-1434.31458	947.38495	446.96777	-956.24100	981.85455	358.40446	-1358.48648	542.35096	628.82729	-1385.84106	507.07390	490.44590	-1249.33487	511.61446	553.99590	-1157.27982	473.83514	374.33266	-1088.23448	517.35313	272.13104	-1232.84813	516.05877	259.32098	-1446.51657	168.93366	711.80328	-1364.95407	171.65783	715.57602	-1388.08685	119.00627	652.02942	-1183.26439	148.51244	224.52160	-1141.80199	161.96346	153.72665	-1231.36429	171.51012	170.83689	15.52394	1036.25320	-15.55926	240.43852	1050.78720	-195.75191	325.31757	1146.35399	-3.02912	152.36633	1129.78134	126.40841	91.26692	1530.80658	-114.07064	172.47019	1607.32880	-28.70379	-9.50122	1699.51431	-178.06458	167.36206	1737.28485	-144.12480	70.92912	1727.63016	-22.21462	305.84225	1486.89163	-192.61751	434.02771	1172.90688	-145.14598	361.23024	1151.75247	-138.56547	410.07820	1181.47141	-228.59755	470.08179	931.30035	-222.04935	434.65099	929.77448	-268.15052	392.42893	928.89961	-233.62129	6.05621	1487.72247	118.86017	-8.62834	1156.99242	77.56611	-85.81264	1197.23778	126.65762	-29.24311	1145.23392	156.19944	-171.85198	975.10941	27.94595	-185.22228	1002.91649	-4.08267	-144.67852	1009.10378	-34.82437	338.90724	998.99582	-172.90134	65.38438	1004.17671	124.30072	136.11041	517.11739	-303.32708	239.74592	503.70811	-267.86282	155.29981	476.40823	-176.54631	174.51754	455.03212	25.56799	206.55008	497.78187	130.14812	273.41305	475.99407	16.23049	101.66260	194.63848	-398.31009	84.81676	176.00231	-334.83818	162.58961	158.86734	-358.26416	291.53381	142.68178	86.57982	312.42929	145.07223	160.26735	356.84753	158.95163	85.57034 
127	11.283	-1075.92186	1082.21176	595.98152	-1329.55719	1106.29730	571.55163	-1347.51236	1150.03014	288.41713	-997.61124	1147.72728	318.91382	-1083.02032	1512.77985	381.13453	-1185.81779	1613.66333	411.33739	-1114.73640	1665.22980	650.63438	-1229.93362	1715.21790	490.27477	-1073.27911	1695.69611	487.66949	-1431.21353	1466.62766	415.48561	-1514.62921	1160.34393	305.92316	-1540.60760	1129.23653	435.21172	-1507.55478	1157.23022	394.06223	-1540.44800	852.89230	365.94738	-1527.05048	853.04527	411.87447	-1479.47617	856.15005	412.96383	-930.10620	1461.35193	393.46001	-967.39304	1119.54475	462.58305	-891.13213	1147.93930	520.50335	-883.51891	1114.26041	441.57990	-969.92256	902.01294	660.55405	-978.35266	928.75885	700.31288	-1026.36261	940.74158	682.62688	-1436.81107	945.97557	468.68828	-959.94453	979.09035	372.37267	-1354.96765	541.57841	652.04315	-1385.55008	505.94223	515.45494	-1247.83974	510.42728	575.39455	-1158.90762	470.25303	383.01758	-1091.04141	516.38950	281.40608	-1235.58090	514.81632	269.60829	-1439.14093	161.19774	726.88400	-1357.29156	163.69043	728.00880	-1382.87888	113.41735	662.96173	-1183.83629	148.30743	226.81438	-1142.66655	163.33361	155.96770	-1232.34833	172.14758	173.92330	7.79544	1034.93462	-24.85899	230.56705	1048.15025	-208.23225	318.08102	1144.32129	-17.47130	147.01787	1128.66234	114.90660	82.58515	1528.51746	-125.97052	164.79029	1605.26688	-41.63149	-18.95882	1697.29736	-188.87487	158.26122	1734.99207	-157.27005	63.56313	1725.59219	-34.10173	296.30365	1484.18289	-206.72964	423.41209	1168.98170	-162.19004	350.41584	1148.52272	-154.84668	398.00045	1178.27217	-245.14338	455.19672	927.45750	-241.14872	419.11079	926.70509	-286.77313	377.28111	925.98015	-251.96423	-0.15283	1486.08398	108.00394	-12.92583	1154.57092	69.46085	-89.85708	1194.92828	118.95801	-32.33646	1143.97766	148.24802	-175.30619	970.01839	25.14258	-189.13754	997.04590	-6.91122	-149.09960	1003.11775	-38.29064	328.92570	996.38962	-186.27056	59.93927	1003.38470	114.52893	123.64951	514.88873	-313.42039	226.89837	500.96222	-277.69907	142.08363	475.20729	-186.91494	169.50056	453.50456	19.92480	202.31672	497.71610	123.35341	267.82784	475.15057	8.95022	89.48595	189.64397	-403.20801	72.65074	172.22561	-339.71588	150.72092	154.76364	-362.76039	289.86973	142.77590	85.72314	311.01450	146.75338	159.21978	355.02171	159.93069	83.89797 
128	11.300	-1076.38451	1079.81567	612.36088	-1330.33035	1104.37263	591.06514	-1352.19131	1147.14630	307.78843	-1002.16354	1144.53804	334.28181	-1087.43866	1509.82803	396.70078	-1190.23613	1610.71136	426.90369	-1115.74379	1662.66159	665.23689	-1233.35052	1712.41989	506.15025	-1076.44722	1693.62961	501.25095	-1435.73624	1464.04160	435.63461	-1520.99152	1156.77429	329.34368	-1546.00159	1126.18172	458.54885	-1511.98074	1154.69048	417.31598	-1542.60544	850.03311	397.15210	-1528.77701	851.92474	443.09113	-1480.91873	855.23125	442.74837	-934.70345	1458.86124	405.43495	-969.42978	1115.69527	465.67085	-892.36908	1144.00856	529.03164	-885.90088	1111.62865	449.50249	-966.21758	892.45934	663.08754	-974.75281	918.04352	703.56148	-1023.02788	929.48341	686.40907	-1439.79233	944.50897	491.04496	-963.97102	976.20575	386.86085	-1350.71579	540.74722	674.50890	-1385.24155	504.73351	540.30033	-1246.56288	508.94390	596.17882	-1160.41977	466.68972	392.20024	-1093.57300	515.82123	290.95419	-1238.51234	513.51448	280.91713	-1431.55777	151.78410	738.19267	-1350.65948	153.70071	736.28761	-1377.74719	107.41325	670.33623	-1184.29298	148.19888	229.05394	-1143.67607	164.99527	158.50516	-1233.47252	173.22617	177.34741	0.20626	1033.68561	-34.11504	220.01184	1045.86609	-221.23850	310.44641	1142.27890	-31.55757	141.29167	1127.51747	103.24035	73.89601	1526.51840	-137.88813	157.05874	1603.37387	-54.69819	-28.69227	1695.26978	-199.64516	149.10337	1732.97119	-170.56208	56.04798	1723.61237	-46.12320	286.50354	1481.73172	-221.09837	412.23854	1165.20554	-179.44735	339.18324	1145.41382	-170.91846	385.53440	1175.33554	-261.91730	439.78199	923.89069	-260.74791	402.83726	923.98804	-305.65729	361.62098	923.52005	-270.22953	-6.29373	1484.66064	96.87446	-17.11692	1152.42180	61.16294	-93.82634	1192.78732	111.26190	-34.99911	1142.88559	140.21540	-177.71265	964.55399	23.52256	-192.48837	990.87616	-8.85835	-152.90972	996.56891	-41.05402	318.23172	994.14886	-199.11825	53.98061	1002.51945	104.42432	110.56522	511.70509	-322.70596	213.86971	498.43647	-287.56403	130.29799	473.77491	-197.21832	163.09155	451.82384	14.24060	196.97538	497.91176	116.44648	261.12564	474.06414	1.46886	79.88462	182.70597	-404.86179	64.34488	166.28473	-340.83729	142.41112	149.95009	-364.61388	287.85524	143.32251	84.51157	309.30048	148.77181	157.91026	352.72491	161.13121	81.99531 
129	11.317	-1076.85867	1077.50389	629.16931	-1330.38330	1102.53334	610.08747	-1357.25662	1144.30054	328.22670	-1006.70074	1141.00021	349.89735	-1092.00806	1506.67511	412.46532	-1194.80553	1607.55859	442.66823	-1116.15051	1660.32990	679.45053	-1236.83578	1709.53110	522.27936	-1079.99451	1690.89371	514.92058	-1440.16342	1461.26984	455.88112	-1527.20245	1153.05710	353.08647	-1551.33026	1123.04504	482.13360	-1516.42731	1152.13417	440.74268	-1544.27338	847.41127	429.46617	-1529.66812	850.99884	475.03502	-1481.79230	854.92416	473.94936	-939.46472	1456.19659	417.85889	-971.60660	1112.69638	472.32273	-893.48000	1139.91722	537.43721	-887.96707	1109.13712	457.11086	-961.67130	882.19681	664.30244	-970.53864	906.47690	705.58846	-1019.32457	917.34871	689.45091	-1442.91962	942.64549	514.15291	-968.13187	973.27896	401.79958	-1347.89948	538.73604	696.99860	-1384.97147	502.83161	563.91472	-1245.23720	506.84654	616.57005	-1160.87868	462.92244	402.82337	-1096.67931	514.99046	301.36353	-1241.69777	511.96133	293.51007	-1424.53964	142.60489	747.23015	-1343.49030	144.11715	742.74849	-1372.85889	101.25346	675.25414	-1184.60373	148.33998	231.67767	-1144.85680	167.21046	161.18092	-1234.69521	174.56676	181.23474	-9.16512	1032.50687	-44.00643	208.76959	1043.91113	-234.77726	302.33816	1140.65285	-45.13181	134.72376	1126.44493	91.43792	65.09505	1524.89304	-149.71692	149.10291	1601.60172	-67.97560	-38.56890	1693.42224	-210.46371	139.62329	1731.13419	-183.91737	48.50456	1721.91299	-58.11885	276.60229	1479.59442	-235.78831	400.86727	1161.70753	-197.00712	327.43191	1142.90428	-187.69848	372.78210	1172.70531	-278.90955	424.08878	920.73318	-281.03558	385.95844	921.66489	-324.85851	345.30678	921.48705	-288.65225	-12.65250	1483.46085	85.48694	-21.16827	1150.55283	52.74187	-97.58846	1190.89211	103.62224	-37.80898	1142.42737	132.24217	-178.97989	959.06342	22.86031	-195.26749	984.66774	-10.11621	-156.23675	990.01419	-43.08892	306.45947	992.16629	-213.70766	47.56708	1001.72775	94.00040	97.75720	507.48974	-330.94612	201.41346	495.79353	-297.04655	118.87220	471.92875	-205.53776	155.97769	450.11971	8.24905	191.37653	498.18981	108.88900	253.44648	472.80003	-6.63450	72.28790	175.51035	-404.93324	58.79277	159.88943	-340.11665	136.56894	145.24851	-365.45372	285.26073	144.32058	83.53893	307.83077	151.10855	156.17503	349.89723	162.45770	79.89710 
